# xmcd
#
# Track frame offsets: 
#        150
#        22717
#        42292
#        58561
#        79821
#        99471
#        110883
#        128204
#        148360
#        169842
#        185259
#        201882
#        219579
#        238802
#        258701
#        277433
#        300300
#
# Disc length: 4177 seconds
#
# Revision: 3
# Processed by: cddbd v1.5.2PL0 Copyright (c) Steve Scherf et al.
# Submitted via: ExactAudioCopy v0.95a4
#
DISCID=02104f11
DTITLE=Various Artist - Blind Pig Records 30Th Anniversary Collection [CD2
DTITLE=)
DYEAR=2006
DGENRE=Blues
TTITLE0=Magic Slim and The Teardrops - I'm A Bluesman
TTITLE1=John Mooney - She Ain't No Good
TTITLE2=Harper - Last Cup Of Coffee
TTITLE3=Mighty Joe Young - As The Years Go Passing By
TTITLE4=Willie "Big Eyes" Smith and Kim Wilson - Believe Me
TTITLE5=Mick Curran and The Nitelifes - Beautiful Girl
TTITLE6=Hamilton Loomis - No No No
TTITLE7=Albert Cummings - Say You Love Me
TTITLE8=Rod Piazza and The Mighty Flyers - Moving In A West Coast Way
TTITLE9=E.C. Scott - Sweet Man Of Mine
TTITLE10=Norton Buffalo and Roy Rogers - All I Want
TTITLE11=Deanna Bogart - Real Time
TTITLE12=George "Harmonica" Smith - Blowing The Blues
TTITLE13=Bill Perry - Leavin' Home
TTITLE14=Pinetop Perkins - After Hours
TTITLE15=Otis Clay - Nickel And A Nail
TTITLE16=Dr. Duke Tumatoe - Moanin' After Blues
EXTD=
EXTT0=
EXTT1=
EXTT2=
EXTT3=
EXTT4=
EXTT5=
EXTT6=
EXTT7=
EXTT8=
EXTT9=
EXTT10=
EXTT11=
EXTT12=
EXTT13=
EXTT14=
EXTT15=
EXTT16=
PLAYORDER=
